<svg width="48" height="48" viewBox="0 0 48 48" fill="none" xmlns="http://www.w3.org/2000/svg">
<rect width="48" height="48" rx="8" fill="#272F64"/>
<path fill-rule="evenodd" clip-rule="evenodd" d="M22.02 34.7621L16.1035 30.5782H14.6784C14.2052 30.577 13.737 30.4814 13.3006 30.2969C12.8642 30.1124 12.4684 29.8426 12.1358 29.5031C11.8013 29.1665 11.5358 28.7667 11.3545 28.3266C11.1732 27.8865 11.0796 27.4147 11.0791 26.9381V24.6034H8.53348V19.6055H6V26.935C6.01456 28.0815 6.24178 29.2151 6.66991 30.2772C6.88767 30.8036 7.15697 31.3068 7.47381 31.7793C7.57734 31.9391 7.68696 32.0927 7.80267 32.2401V32.366L9.28256 33.8651H9.41046C9.55662 33.9788 9.71496 34.0894 9.86417 34.1938C10.8058 34.8371 11.8663 35.2822 12.9823 35.5024C13.5365 35.6174 14.1005 35.677 14.6662 35.6806L22.221 41.0625L26.7155 41.0287V35.6929H32.0382V33.1371H24.517V30.5782H22.0078V34.7621H22.02Z" fill="#E9486D"/>
<path fill-rule="evenodd" clip-rule="evenodd" d="M24.5291 30.5782V33.1371H32.0504V30.5782H24.5291Z" fill="#E73E18"/>
<path fill-rule="evenodd" clip-rule="evenodd" d="M24.5291 30.5782H32.0504V33.1371L33.8044 33.1371C34.5665 33.136 35.3217 32.9901 36.0303 32.707C35.7104 32.216 35.5677 31.629 35.6263 31.0444C35.6848 30.4598 35.9409 29.9134 36.3517 29.4969C36.7624 29.0803 37.3028 28.8191 37.8819 28.757C38.4611 28.6949 39.0437 28.8358 39.5321 29.1559C39.8056 28.4479 39.946 27.6948 39.9462 26.935V24.6464H37.4127V19.8943H34.8793V26.935C34.8785 27.2223 34.7649 27.4977 34.5635 27.7008C34.3621 27.904 34.0892 28.0185 33.8044 28.0193H24.5291V30.5782Z" fill="#F7CC00"/>
<path fill-rule="evenodd" clip-rule="evenodd" d="M37.4127 19.8943V24.6464H39.9462L39.9462 19.8943H37.4127Z" fill="#0FA438"/>
<path fill-rule="evenodd" clip-rule="evenodd" d="M37.4127 19.8943H39.9462L39.9462 24.6464L42.4828 24.6464V16.7579C42.4782 16.1871 42.418 15.6181 42.3031 15.0591C42.1923 14.4967 42.0282 13.9464 41.8128 13.4157C41.5951 12.8893 41.3258 12.386 41.0089 11.9136C40.9024 11.7569 40.7958 11.6064 40.6801 11.4528V11.3268L39.931 10.5773L39.188 9.82776H39.0632C38.917 9.71103 38.7647 9.60044 38.6064 9.496C38.138 9.17638 37.6392 8.9047 37.1174 8.68503C36.5922 8.46308 36.0465 8.29433 35.4883 8.18124C34.9344 8.06383 34.3703 8.00311 33.8044 8H18.6339V10.5589H24.2399V13.1147H33.8044C34.7589 13.1168 35.6735 13.5013 36.347 14.1837C36.6815 14.5202 36.947 14.92 37.1283 15.3601C37.3096 15.8002 37.4031 16.2721 37.4036 16.7487V19.8943L37.4127 19.8943Z" fill="#47B7A3"/>
<path fill-rule="evenodd" clip-rule="evenodd" d="M18.6339 13.1146L24.2399 13.1147V10.5589H18.6339V13.1146Z" fill="#07394A"/>
<path fill-rule="evenodd" clip-rule="evenodd" d="M24.2399 13.1147L18.6339 13.1146V10.5589L14.6753 10.5589C14.0757 10.5586 13.4794 10.6487 12.9062 10.8261C13.1857 11.34 13.2816 11.9353 13.1778 12.5121C13.074 13.0889 12.7768 13.6122 12.336 13.9942C11.8953 14.3762 11.3377 14.5938 10.7568 14.6104C10.1759 14.627 9.60703 14.4416 9.14552 14.0854C9.0968 14.1867 9.05112 14.2912 9.00545 14.3925C8.69562 15.141 8.53523 15.9437 8.53347 16.7548V19.6024H11.07V24.6034H13.6035V16.7579C13.6059 16.4716 13.7201 16.1978 13.9213 15.996C14.1226 15.7941 14.3946 15.6804 14.6784 15.6797H24.2398L24.2399 13.1147Z" fill="#6D66AC"/>
<path fill-rule="evenodd" clip-rule="evenodd" d="M10.6985 14.6168C11.1388 14.6164 11.5714 14.5001 11.9535 14.2794C12.3356 14.0588 12.654 13.7413 12.8772 13.3585C13.1005 12.9757 13.2209 12.5407 13.2265 12.0966C13.2321 11.6525 13.1227 11.2145 12.9092 10.8261C12.7146 10.8847 12.5235 10.9544 12.3368 11.035C11.5958 11.3469 10.9224 11.8019 10.3544 12.3743C9.86469 12.8647 9.46198 13.4361 9.16381 14.0638C9.60003 14.4155 10.1402 14.6101 10.6985 14.6168Z" fill="#871D69"/>
<path fill-rule="evenodd" clip-rule="evenodd" d="M10.3544 12.3743C10.9224 11.8019 11.5958 11.3469 12.3368 11.035C12.5235 10.9544 12.7146 10.8847 12.9092 10.8261C12.7275 10.4934 12.4744 10.2057 12.1686 9.98404C11.8627 9.76238 11.5117 9.61228 11.1411 9.54469C10.7705 9.47709 10.3897 9.4937 10.0262 9.59329C9.6628 9.69288 9.32595 9.87296 9.04019 10.1204C8.75443 10.3679 8.52696 10.6765 8.37432 11.0238C8.22167 11.3711 8.14771 11.7484 8.1578 12.1282C8.16789 12.508 8.26178 12.8807 8.43264 13.2193C8.6035 13.5578 8.84704 13.8537 9.14552 14.0854C9.44369 13.4576 9.84641 12.8862 10.3361 12.3958L10.3544 12.3743Z" fill="#E9486D"/>
<path fill-rule="evenodd" clip-rule="evenodd" d="M11.07 19.6055H8.53651V24.6034L11.07 24.6034L11.07 19.6055Z" fill="#871D69"/>
<path fill-rule="evenodd" clip-rule="evenodd" d="M19.2033 24.3761C18.7014 24.3755 18.2106 24.5251 17.793 24.8061C17.3754 25.087 17.0498 25.4866 16.8574 25.9543C16.6651 26.422 16.6146 26.9368 16.7124 27.4334C16.8101 27.9301 17.0518 28.3863 17.4067 28.7443C17.7616 29.1024 18.2139 29.3462 18.7062 29.4448C19.1985 29.5434 19.7088 29.4925 20.1724 29.2985C20.636 29.1044 21.0321 28.7759 21.3106 28.3547C21.5891 27.9334 21.7374 27.4382 21.7368 26.9319C21.736 26.2543 21.4688 25.6047 20.9939 25.1256C20.519 24.6464 19.875 24.3769 19.2033 24.3761Z" fill="#E9486D"/>
<path fill-rule="evenodd" clip-rule="evenodd" d="M28.0553 17.0989C28.0559 17.6042 28.205 18.0981 28.4837 18.518C28.7625 18.9379 29.1584 19.265 29.6214 19.4579C30.0843 19.6509 30.5936 19.7011 31.0849 19.6021C31.5761 19.5032 32.0273 19.2595 32.3813 18.9019C32.7353 18.5444 32.9763 18.089 33.0738 17.5933C33.1713 17.0976 33.121 16.5839 32.9291 16.117C32.7373 15.6502 32.4125 15.2512 31.996 14.9705C31.5794 14.6898 31.0897 14.54 30.5888 14.54C30.2558 14.54 29.9261 14.6062 29.6185 14.7349C29.311 14.8635 29.0315 15.052 28.7963 15.2897C28.561 15.5273 28.3744 15.8094 28.2473 16.1199C28.1201 16.4303 28.0549 16.763 28.0553 17.0989Z" fill="#47B7A3"/>
<path fill-rule="evenodd" clip-rule="evenodd" d="M38.1466 28.7412C37.6889 28.7417 37.2399 28.867 36.8471 29.104C36.4544 29.3409 36.1325 29.6806 35.9155 30.0872C35.6986 30.4937 35.5947 30.9518 35.6149 31.413C35.6351 31.8743 35.7787 32.3214 36.0303 32.707L36.146 32.6609C36.8865 32.3468 37.5596 31.8909 38.1283 31.3185C38.6964 30.7443 39.1484 30.0641 39.459 29.3157L39.5138 29.1744C39.1016 28.9035 38.6202 28.7595 38.1283 28.7597L38.1466 28.7412Z" fill="#0FA438"/>
<path fill-rule="evenodd" clip-rule="evenodd" d="M39.4773 29.2973C39.1667 30.0456 38.7147 30.7259 38.1466 31.3001C37.5779 31.8725 36.9048 32.3284 36.1643 32.6425L36.0485 32.6886C36.2557 33.0066 36.5307 33.274 36.8532 33.4713C37.1758 33.6686 37.538 33.7908 37.9133 33.8291C38.2886 33.8673 38.6677 33.8206 39.0229 33.6924C39.3781 33.5642 39.7004 33.3576 39.9665 33.0878C40.2325 32.818 40.4356 32.4918 40.5608 32.1328C40.6861 31.7738 40.7304 31.3912 40.6905 31.0127C40.6507 30.6343 40.5276 30.2696 40.3304 29.9452C40.1332 29.6208 39.8667 29.3449 39.5504 29.1375L39.4955 29.2788L39.4773 29.2973Z" fill="#47B7A3"/>
</svg>

