<svg width="289" height="87" viewBox="0 0 289 87" fill="none" xmlns="http://www.w3.org/2000/svg">
<path fill-rule="evenodd" clip-rule="evenodd" d="M42.1547 70.4213L26.5861 59.4119H22.8362C21.5911 59.4088 20.3589 59.1572 19.2107 58.6717C18.0624 58.1861 17.0207 57.4762 16.1456 56.5827C15.2653 55.6971 14.5668 54.6452 14.0897 53.4871C13.6126 52.329 13.3664 51.0874 13.3652 49.8332V43.69H6.66655V30.5385H0V49.8252C0.0383127 52.842 0.636213 55.8249 1.76279 58.6197C2.3358 60.005 3.04443 61.3291 3.87814 62.5724C4.15057 62.9928 4.43903 63.3969 4.74351 63.7849V64.1163L8.63767 68.061H8.97421C9.35882 68.36 9.77548 68.651 10.1681 68.9259C12.6458 70.6186 15.4364 71.7898 18.3731 72.3693C19.8313 72.6718 21.3154 72.8288 22.8041 72.8382L42.6836 87L54.5103 86.9111V72.8705H68.5165V66.1452H48.7251V59.4119H42.1227V70.4213H42.1547Z" fill="#E9486D"/>
<path fill-rule="evenodd" clip-rule="evenodd" d="M48.7572 59.4119V66.1452H68.5485V59.4119H48.7572Z" fill="#E73E18"/>
<path fill-rule="evenodd" clip-rule="evenodd" d="M48.7572 59.4119H68.5485V66.1452L73.1638 66.1452C75.1694 66.1423 77.1564 65.7584 79.0211 65.0135C78.1793 63.7216 77.804 62.1768 77.958 60.6386C78.112 59.1004 78.786 57.6625 79.8669 56.5664C80.9477 55.4704 82.3695 54.783 83.8934 54.6196C85.4174 54.4562 86.9507 54.8269 88.2357 55.6693C88.9553 53.8063 89.3248 51.8245 89.3254 49.8251V43.8031H82.6588V31.2983H75.9923V49.8251C75.9902 50.5812 75.6915 51.3057 75.1615 51.8404C74.6315 52.375 73.9133 52.6764 73.1638 52.6785H48.7572V59.4119Z" fill="#F7CC00"/>
<path fill-rule="evenodd" clip-rule="evenodd" d="M82.6588 31.2983V43.8031H89.3254L89.3254 31.2983H82.6588Z" fill="#0FA438"/>
<path fill-rule="evenodd" clip-rule="evenodd" d="M82.6588 31.2983H89.3254L89.3254 43.8031L96 43.8031V23.0453C95.9879 21.5433 95.8296 20.0461 95.5272 18.5753C95.2358 17.0954 94.8038 15.6472 94.2372 14.2508C93.6642 12.8655 92.9556 11.5414 92.1218 10.2981C91.8414 9.88581 91.561 9.48973 91.2565 9.08557V8.75416L89.2854 6.78184L87.3303 4.80953H87.0017C86.6171 4.50237 86.2165 4.21137 85.7998 3.93654C84.5674 3.09549 83.2548 2.38062 81.8816 1.80256C80.4997 1.21855 79.0638 0.774485 77.5948 0.476912C76.1375 0.167954 74.653 0.00817401 73.1638 0H33.2446V6.73334H47.996V13.4586H73.1638C75.6755 13.4642 78.0822 14.476 79.8544 16.2716C80.7346 17.1572 81.4332 18.2091 81.9103 19.3673C82.3874 20.5254 82.6336 21.767 82.6348 23.0211V31.2983L82.6588 31.2983Z" fill="#47B7A3"/>
<path fill-rule="evenodd" clip-rule="evenodd" d="M33.2446 13.4586L47.996 13.4586V6.73334H33.2446V13.4586Z" fill="#07394A"/>
<path fill-rule="evenodd" clip-rule="evenodd" d="M47.996 13.4586L33.2446 13.4586V6.73334L22.8281 6.73331C21.2503 6.73277 19.6812 6.96979 18.1727 7.43655C18.9083 8.78893 19.1607 10.3553 18.8876 11.8731C18.6145 13.3909 17.8324 14.7679 16.6725 15.7731C15.5126 16.7783 14.0455 17.3508 12.5169 17.3944C10.9884 17.4381 9.49147 16.9503 8.27706 16.0129C8.14886 16.2796 8.02867 16.5545 7.90848 16.8212C7.09321 18.7906 6.67116 20.903 6.66651 23.0372V30.5304H13.3411V43.6899H20.0076V23.0453C20.014 22.292 20.3145 21.5716 20.844 21.0404C21.3736 20.5093 22.0894 20.2102 22.8361 20.2081H47.996L47.996 13.4586Z" fill="#6D66AC"/>
<path fill-rule="evenodd" clip-rule="evenodd" d="M12.3636 17.4113C13.5221 17.4102 14.6604 17.1043 15.6658 16.5236C16.6713 15.9429 17.5092 15.1076 18.0966 14.1003C18.6841 13.0929 19.0009 11.9483 19.0157 10.7797C19.0304 9.611 18.7427 8.45867 18.1808 7.43655C17.6687 7.59073 17.1658 7.77425 16.6744 7.98621C14.7247 8.80701 12.9528 10.0042 11.4582 11.5105C10.1695 12.8008 9.10978 14.3045 8.32519 15.9563C9.47305 16.8816 10.8944 17.3937 12.3636 17.4113Z" fill="#871D69"/>
<path fill-rule="evenodd" clip-rule="evenodd" d="M11.4582 11.5105C12.9528 10.0042 14.7247 8.80701 16.6744 7.98621C17.1658 7.77425 17.6687 7.59073 18.1808 7.43655C17.7025 6.561 17.0367 5.80407 16.2318 5.22078C15.427 4.63748 14.5034 4.24253 13.5283 4.06466C12.5531 3.88679 11.5509 3.93048 10.5945 4.19255C9.63822 4.45461 8.75184 4.92847 7.9999 5.57963C7.24796 6.23079 6.64938 7.04287 6.24773 7.95678C5.84607 8.87069 5.65143 9.86344 5.67798 10.8628C5.70453 11.8621 5.95159 12.843 6.4012 13.7339C6.85081 14.6247 7.49163 15.4033 8.27706 16.0129C9.06165 14.3611 10.1214 12.8574 11.41 11.5671L11.4582 11.5105Z" fill="#E9486D"/>
<path fill-rule="evenodd" clip-rule="evenodd" d="M13.3411 30.5385H6.67453V43.69L13.3411 43.6899L13.3411 30.5385Z" fill="#871D69"/>
<path fill-rule="evenodd" clip-rule="evenodd" d="M34.743 43.0917C33.4222 43.0901 32.1307 43.4839 31.0318 44.2231C29.933 44.9624 29.0762 46.0139 28.57 47.2446C28.0639 48.4753 27.931 49.8298 28.1883 51.1367C28.4456 52.4436 29.0814 53.6441 30.0154 54.5863C30.9493 55.5284 32.1394 56.1699 33.4348 56.4294C34.7303 56.689 36.073 56.555 37.293 56.0443C38.5129 55.5337 39.5553 54.6694 40.2881 53.5609C41.0209 52.4524 41.4112 51.1494 41.4096 49.817C41.4075 48.034 40.7044 46.3247 39.4546 45.0639C38.2049 43.8031 36.5105 43.0939 34.743 43.0917Z" fill="#E9486D"/>
<path fill-rule="evenodd" clip-rule="evenodd" d="M58.0358 23.9426C58.0374 25.2724 58.4298 26.5719 59.1632 27.6768C59.8967 28.7817 60.9385 29.6424 62.1568 30.1502C63.375 30.658 64.7152 30.79 66.0079 30.5296C67.3005 30.2692 68.4876 29.628 69.4192 28.6871C70.3507 27.7463 70.9848 26.5479 71.2414 25.2436C71.498 23.9392 71.3655 22.5874 70.8607 21.359C70.3559 20.1306 69.5014 19.0807 68.4053 18.3421C67.3092 17.6035 66.0206 17.2093 64.7024 17.2093C63.8263 17.2093 62.9587 17.3835 62.1494 17.722C61.34 18.0604 60.6047 18.5565 59.9856 19.1819C59.3664 19.8073 58.8755 20.5496 58.541 21.3665C58.2064 22.1834 58.0348 23.0588 58.0358 23.9426Z" fill="#47B7A3"/>
<path fill-rule="evenodd" clip-rule="evenodd" d="M84.5898 54.5781C83.3856 54.5792 82.2041 54.9091 81.1706 55.5326C80.137 56.1561 79.29 57.05 78.7191 58.1197C78.1483 59.1894 77.875 60.395 77.9281 61.6086C77.9813 62.8223 78.359 63.9988 79.0211 65.0135L79.3255 64.8923C81.274 64.0657 83.0454 62.8661 84.5418 61.3599C86.0368 59.8489 87.226 58.0589 88.0433 56.0897L88.1876 55.7178C87.1029 55.0052 85.8362 54.626 84.5418 54.6266L84.5898 54.5781Z" fill="#0FA438"/>
<path fill-rule="evenodd" clip-rule="evenodd" d="M88.0914 56.0412C87.2741 58.0104 86.0849 59.8005 84.5899 61.3115C83.0935 62.8176 81.3221 64.0172 79.3736 64.8438L79.0691 64.9651C79.6144 65.8019 80.3377 66.5055 81.1866 67.0247C82.0354 67.5438 82.9884 67.8654 83.976 67.9661C84.9636 68.0667 85.9611 67.9438 86.8957 67.6064C87.8304 67.269 88.6786 66.7255 89.3787 66.0156C90.0788 65.3057 90.6131 64.4471 90.9427 63.5025C91.2723 62.558 91.3889 61.5511 91.284 60.5553C91.1791 59.5595 90.8554 58.5998 90.3363 57.7462C89.8173 56.8926 89.1161 56.1665 88.2837 55.6209L88.1395 55.9927L88.0914 56.0412Z" fill="#47B7A3"/>
<path d="M125.518 42.9088V56.7624C125.55 57.6699 125.398 58.5744 125.073 59.422C124.748 60.2697 124.255 61.0431 123.624 61.6962C122.994 62.3493 122.238 62.8687 121.403 63.2235C120.567 63.5782 119.669 63.761 118.761 63.761C117.854 63.761 116.955 63.5782 116.12 63.2235C115.284 62.8687 114.529 62.3493 113.898 61.6962C113.267 61.0431 112.775 60.2697 112.449 59.422C112.124 58.5744 111.973 57.6699 112.004 56.7624H116.093C116.083 57.1171 116.146 57.47 116.278 57.7995C116.409 58.1289 116.607 58.4277 116.859 58.6775C117.104 58.9306 117.396 59.1329 117.719 59.2727C118.042 59.4126 118.389 59.4872 118.741 59.4924C119.089 59.4885 119.433 59.4144 119.752 59.2743C120.072 59.1343 120.359 58.9313 120.598 58.6775C120.844 58.4355 121.039 58.1462 121.171 57.8268C121.303 57.5075 121.368 57.1648 121.364 56.8195H121.453V46.7145H117.095L117.185 42.974L125.518 42.9088Z" fill="white"/>
<path d="M147.814 53.2175C147.815 55.334 147.189 57.4036 146.015 59.1642C144.841 60.9249 143.171 62.2976 141.217 63.1087C139.263 63.9198 137.112 64.1329 135.036 63.7209C132.961 63.309 131.055 62.2906 129.558 60.7945C128.061 59.2984 127.042 57.3919 126.629 55.3161C126.215 53.2402 126.427 51.0884 127.236 49.1328C128.045 47.1772 129.416 45.5056 131.175 44.3295C132.934 43.1534 135.002 42.5257 137.118 42.5257C139.952 42.53 142.669 43.6576 144.673 45.6615C146.678 47.6654 147.807 50.3824 147.814 53.2175ZM130.707 53.2175C130.707 54.4943 131.086 55.7425 131.795 56.804C132.504 57.8656 133.512 58.6928 134.692 59.1811C135.871 59.6694 137.169 59.7967 138.42 59.547C139.672 59.2973 140.822 58.6818 141.724 57.7784C142.626 56.8749 143.239 55.7241 143.487 54.4716C143.736 53.2191 143.607 51.9211 143.117 50.7419C142.627 49.5627 141.799 48.5553 140.737 47.847C139.675 47.1388 138.427 46.7617 137.151 46.7633C136.299 46.7557 135.454 46.9171 134.664 47.2381C133.875 47.5591 133.157 48.0333 132.552 48.6334C131.947 49.2335 131.466 49.9475 131.139 50.7343C130.811 51.5211 130.642 52.3651 130.642 53.2175H130.707Z" fill="white"/>
<path d="M154.754 63.567L145.427 42.9087H149.989L155.373 54.6029L160.733 42.8843H165.303L155.96 63.567H154.754Z" fill="white"/>
<path d="M180.227 47.0323H170.623V50.8298H178.573V54.9533H170.623V59.4354H180.137V63.567H166.476V42.9088H180.227V47.0323Z" fill="white"/>
<path d="M197.569 63.567L185.97 51.5062V63.567H181.848V42.9088H183.143L194.547 54.4562V42.9088H198.669V63.567H197.569Z" fill="white"/>
<path d="M206.848 54.8066C205.74 54.5591 204.685 54.1207 203.728 53.5109C202.936 53.0155 202.279 52.3309 201.817 51.5187C201.355 50.7064 201.102 49.792 201.08 48.8577C201.022 48.0897 201.126 47.318 201.384 46.5924C201.642 45.8667 202.049 45.2032 202.579 44.6445C203.867 43.3895 205.58 42.6652 207.377 42.6154C209.608 42.6071 211.78 43.3314 213.56 44.6771L214.236 45.1172L212.086 48.6214L211.352 48.1487C210.025 47.293 209.177 46.7389 207.377 46.7389C206.702 46.7905 206.062 47.0593 205.553 47.5049C205.41 47.6619 205.305 47.8488 205.244 48.0519C205.184 48.255 205.169 48.469 205.202 48.6784C205.202 49.7378 205.968 50.3082 207.85 50.8053C208.086 50.8624 208.265 50.9194 208.436 50.9765C210.161 51.4998 211.731 52.4402 213.006 53.7146C214.046 54.8173 214.628 56.2736 214.635 57.7892C214.583 59.4504 213.887 61.0262 212.696 62.1846C211.505 63.3429 209.91 63.9934 208.249 63.9989C207.022 64.0152 205.801 63.8476 204.624 63.5018C202.753 62.9001 201.069 61.8249 199.736 60.3807L202.734 57.5529C203.434 58.3186 204.292 58.923 205.248 59.324C206.205 59.7251 207.237 59.9132 208.273 59.8754C208.845 59.8791 209.396 59.6659 209.816 59.2787C210.237 58.8915 210.495 58.3592 210.538 57.7892C210.538 56.6646 209.275 55.6378 207.125 54.8963H207.035L206.848 54.8066Z" fill="white"/>
<path d="M226.333 63.567H224.003V45.0683H217.055V42.9169H233.216V45.0683H226.3L226.333 63.567Z" fill="white"/>
<path d="M250.331 45.0439H237.754V52.0848H249.003V54.2036H237.754V61.4238H250.453V63.567H235.432V42.9169H250.331V45.0439Z" fill="white"/>
<path d="M268.953 61.7578C268.374 62.2018 267.748 62.5816 267.087 62.8906C266.399 63.2143 265.678 63.4629 264.937 63.6322C264.094 63.8127 263.233 63.9002 262.371 63.8929C260.955 63.9095 259.552 63.632 258.249 63.078C257.025 62.548 255.917 61.7808 254.991 60.8207C254.054 59.852 253.318 58.7084 252.824 57.4551C252.285 56.1242 252.009 54.702 252.009 53.2664C252.01 51.844 252.286 50.4353 252.824 49.1184C253.321 47.8545 254.057 46.698 254.991 45.712C255.925 44.7325 257.047 43.9509 258.29 43.414C259.61 42.8517 261.034 42.5741 262.469 42.5991C263.324 42.592 264.178 42.6712 265.018 42.8354C265.741 42.9791 266.445 43.2004 267.12 43.4955C267.757 43.7723 268.36 44.1194 268.92 44.5304C269.492 44.9397 270.036 45.3862 270.549 45.8669L268.92 47.5782C268.065 46.7788 267.109 46.094 266.077 45.5409C264.553 44.773 262.821 44.5169 261.14 44.8104C259.459 45.104 257.916 45.9317 256.742 47.1708C256.013 47.9526 255.443 48.8687 255.064 49.8682C254.656 50.9345 254.452 52.0677 254.461 53.2093C254.453 54.3561 254.658 55.4944 255.064 56.5668C255.441 57.5722 256.011 58.4941 256.742 59.2805C257.458 60.0453 258.32 60.6602 259.275 61.0896C260.272 61.5352 261.353 61.7604 262.444 61.7497C263.708 61.7719 264.959 61.4925 266.094 60.9348C267.199 60.3571 268.212 59.6184 269.099 58.7426L270.623 60.2502C270.105 60.7943 269.547 61.2983 268.953 61.7578Z" fill="white"/>
<path d="M274.802 54.2606V63.567H272.447V42.9169H274.777V52.0848H286.67V42.9169H289V63.567H286.67V54.2606H274.802Z" fill="white"/>
<path d="M168.521 26.2925C168.382 26.5683 168.185 26.8103 167.943 27.0015C167.682 27.1924 167.389 27.3358 167.079 27.4253C166.74 27.5247 166.389 27.5741 166.036 27.572H164.407V30.0167H163.593V23.1469H166.167C166.525 23.1431 166.882 23.1925 167.226 23.2936C167.519 23.3911 167.795 23.5371 168.04 23.7255C168.264 23.9119 168.44 24.1495 168.553 24.4182C168.68 24.7056 168.744 25.0168 168.741 25.3309C168.744 25.6643 168.669 25.9938 168.521 26.2925ZM167.454 24.2145C167.059 23.9452 166.587 23.8135 166.11 23.8396H164.375V26.8956H166.077C166.336 26.8958 166.594 26.8602 166.843 26.7896C167.061 26.7248 167.266 26.6198 167.446 26.48C167.607 26.3494 167.737 26.1854 167.828 25.9992C167.921 25.8031 167.969 25.5886 167.967 25.3717C167.986 25.1511 167.949 24.9294 167.859 24.7271C167.769 24.5247 167.63 24.3484 167.454 24.2145Z" fill="white"/>
<path d="M178.809 29.9923L176.814 27.3193H174.85V29.9923H174.036V23.1225H176.993C177.34 23.1185 177.687 23.168 178.019 23.2692C178.315 23.3541 178.591 23.4952 178.834 23.6848C179.046 23.8624 179.216 24.0851 179.331 24.3367C179.45 24.5916 179.512 24.87 179.51 25.1516C179.513 25.4135 179.466 25.6736 179.371 25.9177C179.284 26.1411 179.151 26.3437 178.98 26.5126C178.807 26.6838 178.606 26.8243 178.386 26.9282C178.151 27.0421 177.902 27.1216 177.644 27.1645L179.754 29.9678L178.809 29.9923ZM178.28 24.1982C177.898 23.9349 177.439 23.8085 176.976 23.8396H174.85V26.6348H176.968C177.208 26.6371 177.447 26.6042 177.677 26.537C177.879 26.4781 178.069 26.3843 178.239 26.2599C178.391 26.138 178.516 25.9853 178.606 25.8117C178.698 25.6243 178.746 25.4178 178.744 25.2087C178.753 25.0153 178.716 24.8226 178.635 24.6467C178.555 24.4708 178.433 24.317 178.28 24.1982Z" fill="white"/>
<path d="M191.55 27.9061C191.386 28.3266 191.143 28.7113 190.833 29.0388C190.523 29.3837 190.146 29.6611 189.725 29.8538C189.273 30.0531 188.785 30.1532 188.291 30.1471C187.819 30.1547 187.35 30.0644 186.914 29.8821C186.478 29.6998 186.084 29.4294 185.758 29.0877C185.449 28.7636 185.208 28.3813 185.049 27.9631C184.879 27.5296 184.794 27.0678 184.797 26.6022C184.788 25.6773 185.135 24.7844 185.766 24.1085C186.075 23.7637 186.452 23.4863 186.874 23.2936C187.325 23.0943 187.814 22.9942 188.307 23.0003C188.8 22.9946 189.288 23.0918 189.741 23.2855C190.159 23.4799 190.533 23.7571 190.841 24.1004C191.149 24.4263 191.392 24.8079 191.558 25.225C191.721 25.66 191.804 26.1212 191.802 26.5859C191.801 27.0379 191.716 27.4857 191.55 27.9061ZM190.8 25.4613C190.67 25.1304 190.479 24.8265 190.238 24.5649C189.995 24.3041 189.701 24.0961 189.375 23.9537C189.035 23.7979 188.665 23.7199 188.291 23.7255C187.919 23.7213 187.549 23.7963 187.208 23.9456C186.897 24.0874 186.62 24.2929 186.393 24.5486C186.153 24.8127 185.966 25.1196 185.839 25.4532C185.701 25.8032 185.631 26.1769 185.636 26.5533C185.631 26.9324 185.701 27.3088 185.839 27.6616C185.962 27.999 186.153 28.3071 186.401 28.5662C186.631 28.82 186.908 29.0274 187.216 29.1774C187.559 29.3251 187.929 29.4013 188.303 29.4013C188.677 29.4013 189.047 29.3251 189.391 29.1774C189.701 29.0309 189.978 28.823 190.205 28.5662C190.444 28.3042 190.632 28.0002 190.759 27.6698C190.902 27.3202 190.98 26.9472 190.987 26.5696C190.993 26.1892 190.929 25.811 190.8 25.4532V25.4613Z" fill="white"/>
<path d="M200.502 28.7536C200.403 29.0277 200.25 29.2797 200.054 29.4952C199.87 29.6958 199.641 29.8495 199.386 29.9433C199.125 30.0382 198.849 30.0878 198.571 30.09C198.118 30.1081 197.669 29.9888 197.284 29.7478C196.955 29.5177 196.677 29.2205 196.47 28.8758L197.032 28.395C197.21 28.6794 197.439 28.9281 197.708 29.1284C197.975 29.2998 198.287 29.3851 198.604 29.3729C198.785 29.377 198.964 29.342 199.13 29.2702C199.296 29.1985 199.444 29.0918 199.565 28.9573C199.843 28.6099 199.98 28.1705 199.948 27.7268V23.1225H200.763V27.7105C200.737 28.0707 200.649 28.4237 200.502 28.7536Z" fill="white"/>
<path d="M211.393 23.8233H207.206V26.1702H210.953V26.8955H207.206V29.3403H211.442V30.0492H206.465V23.1795H211.426L211.393 23.8233Z" fill="white"/>
<path d="M219.498 29.9922H218.725V23.8396H216.419V23.1225H221.804V23.8396H219.498V29.9922Z" fill="white"/>
<path d="M233.2 27.9061C233.034 28.3251 232.791 28.7092 232.483 29.0388C232.174 29.3837 231.797 29.6611 231.375 29.8538C230.924 30.0524 230.435 30.1524 229.942 30.1471C229.449 30.1528 228.961 30.0556 228.508 29.8619C228.094 29.6788 227.72 29.4157 227.408 29.0877C227.1 28.7619 226.857 28.3802 226.691 27.9631C226.528 27.5281 226.445 27.0669 226.447 26.6022C226.443 26.1365 226.528 25.6744 226.699 25.2413C226.863 24.8208 227.106 24.4361 227.416 24.1085C227.726 23.7637 228.103 23.4863 228.524 23.2936C228.976 23.0943 229.465 22.9942 229.958 23.0003C230.448 22.9948 230.933 23.0919 231.383 23.2855C231.797 23.4651 232.171 23.7255 232.483 24.0516C232.795 24.3776 233.039 24.7627 233.2 25.1843C233.37 25.6177 233.455 26.0796 233.453 26.5452C233.457 27.0109 233.371 27.473 233.2 27.9061ZM232.442 25.4613C232.318 25.1273 232.127 24.8223 231.88 24.5649C231.651 24.3105 231.374 24.103 231.066 23.9537C230.726 23.7987 230.356 23.7208 229.982 23.7255C229.607 23.7211 229.235 23.7961 228.891 23.9456C228.583 24.0919 228.306 24.2967 228.076 24.5486C227.839 24.8148 227.652 25.1211 227.522 25.4532C227.388 25.8043 227.319 26.1772 227.319 26.5533C227.319 26.9321 227.388 27.3076 227.522 27.6616C227.651 27.996 227.841 28.303 228.084 28.5662C228.329 28.8245 228.623 29.0321 228.948 29.1774C229.29 29.3254 229.659 29.4017 230.031 29.4017C230.404 29.4017 230.773 29.3254 231.115 29.1774C231.426 29.0331 231.704 28.8249 231.929 28.5662C232.17 28.3063 232.359 28.0018 232.483 27.6698C232.622 27.3197 232.691 26.9461 232.687 26.5696C232.678 26.1852 232.595 25.8061 232.442 25.4532V25.4613Z" fill="white"/>
</svg>
