<svg width="500" height="376" viewBox="0 0 500 376" fill="none" xmlns="http://www.w3.org/2000/svg">
<path d="M450.04 125.68L453.35 122.59L452.04 119.98C453.039 118.81 453.939 117.559 454.73 116.24L457.63 116.67L459.5 112.53L457.28 110.64C457.758 109.176 458.109 107.674 458.33 106.15L461.18 105.44L461.32 100.9L458.54 100C458.418 98.4624 458.17 96.9373 457.8 95.44L460.15 93.69L458.55 89.44L455.64 89.67C454.938 88.2993 454.126 86.9883 453.21 85.75L454.72 83.25L451.61 79.93L449.01 81.26C447.839 80.263 446.588 79.3633 445.27 78.57L445.69 75.67L441.56 73.78L439.66 76.01C438.193 75.5533 436.692 75.2189 435.17 75.01L434.46 72.17L429.92 72L429.01 74.8C427.478 74.9171 425.96 75.1646 424.47 75.54L422.73 73.19L418.47 74.78L418.71 77.7C417.335 78.3949 416.024 79.208 414.79 80.13L412.27 78.62L408.95 81.71L410.24 84.26C409.233 85.4261 408.33 86.6775 407.54 88L404.65 87.57L402.77 91.71L405 93.61C404.538 95.0716 404.203 96.5706 404 98.09L401.14 98.8L401 103.34L403.79 104.24C403.904 105.778 404.148 107.303 404.52 108.8L402.16 110.54L403.76 114.79L406.68 114.57C407.382 115.941 408.195 117.252 409.11 118.49L407.6 120.99L410.71 124.31L413.31 122.98C414.479 123.98 415.73 124.88 417.05 125.67L416.62 128.56L420.76 130.45L422.66 128.23C424.128 128.682 425.629 129.016 427.15 129.23L427.86 132.07L432.4 132.24L433.31 129.44C434.842 129.324 436.361 129.076 437.85 128.7L439.59 131.05L443.85 129.46L443.62 126.54C444.991 125.844 446.299 125.031 447.53 124.11L450.04 125.68ZM426.42 106.55C425.547 105.614 424.971 104.441 424.765 103.177C424.559 101.914 424.732 100.618 425.262 99.4535C425.793 98.2887 426.657 97.3075 427.745 96.634C428.834 95.9604 430.097 95.6248 431.377 95.6696C432.656 95.7144 433.893 96.1375 434.931 96.8856C435.97 97.6336 436.763 98.6728 437.211 99.8718C437.659 101.071 437.741 102.376 437.447 103.621C437.153 104.867 436.497 105.998 435.56 106.87C434.938 107.456 434.207 107.913 433.408 108.214C432.608 108.516 431.757 108.656 430.903 108.626C430.049 108.596 429.21 108.397 428.434 108.041C427.657 107.685 426.959 107.178 426.38 106.55H426.42Z" fill="#F5F5F5"/>
<path d="M324.17 235.9L313.83 228.75C312.816 225.027 311.422 221.418 309.67 217.98L312.32 207.58L297.32 191.52L286.76 193.45C283.447 191.465 279.938 189.827 276.29 188.56L269.87 177.75L247.87 177L240.73 187.34C237.011 188.353 233.406 189.743 229.97 191.49L219.57 188.84L203.51 203.84L205.44 214.38C203.457 217.7 201.822 221.215 200.56 224.87L189.75 231.29L189 253.29L199.35 260.43C200.347 264.173 201.738 267.8 203.5 271.25L200.82 281.56L215.82 297.62L226.31 295.7C229.648 297.687 233.179 299.329 236.85 300.6L243.26 311.39L265.26 312.15L272.39 301.81C276.142 300.797 279.781 299.403 283.25 297.65L293.59 300.29L309.66 285.29L307.73 274.75C309.719 271.43 311.355 267.911 312.61 264.25L323.42 257.83L324.17 235.9ZM255.72 269.29C250.836 269.123 246.111 267.512 242.143 264.66C238.175 261.808 235.141 257.843 233.426 253.267C231.711 248.691 231.391 243.709 232.507 238.952C233.623 234.194 236.125 229.874 239.695 226.538C243.266 223.202 247.746 221 252.569 220.21C257.391 219.419 262.34 220.077 266.789 222.099C271.238 224.121 274.987 227.417 277.563 231.57C280.139 235.723 281.425 240.546 281.26 245.43C281.031 251.98 278.211 258.172 273.421 262.645C268.63 267.119 262.261 269.509 255.71 269.29H255.72Z" fill="#F5F5F5"/>
<path d="M360.1 88.58L352.92 86.66L351 79.48L353.81 76.68L356.77 82.81L362.91 85.78L360.1 88.58Z" fill="#E0E0E0"/>
<path d="M360.54 83.78C360.85 83.4694 361.097 83.1007 361.265 82.6949C361.433 82.2891 361.519 81.8542 361.519 81.415C361.519 80.9758 361.433 80.5409 361.265 80.1351C361.097 79.7293 360.85 79.3606 360.54 79.05C360.229 78.7394 359.86 78.4931 359.454 78.325C359.049 78.1569 358.614 78.0704 358.175 78.0704C357.735 78.0704 357.3 78.1569 356.895 78.325C356.489 78.4931 356.12 78.7394 355.81 79.05L359.38 73.69L364.16 76.11L365.21 81.11L360.54 83.78Z" fill="#E0E0E0"/>
<path d="M353.24 77.26L358.5 72L365.66 73.91L367.59 81.08L362.33 86.34L355.16 84.41L353.24 77.26ZM362.79 81.56C363.258 81.0914 363.577 80.4944 363.706 79.8447C363.835 79.195 363.769 78.5216 363.515 77.9096C363.261 77.2977 362.832 76.7747 362.281 76.4067C361.73 76.0388 361.083 75.8424 360.42 75.8424C359.758 75.8424 359.11 76.0388 358.559 76.4067C358.009 76.7747 357.579 77.2977 357.326 77.9096C357.072 78.5216 357.005 79.195 357.134 79.8447C357.263 80.4944 357.582 81.0914 358.05 81.56C358.684 82.1815 359.537 82.5279 360.424 82.5242C361.312 82.5204 362.162 82.1668 362.79 81.54V81.56Z" fill="#F0F0F0"/>
<path d="M8.31455 71.4676C6.2955 65.5547 6.3528 60.4059 8.50941 55.9771C10.666 51.5484 14.619 48.3725 20.5101 46.3509C26.4012 44.3293 31.677 44.3195 36.0314 46.4378C40.3859 48.5561 43.6145 52.5742 45.6173 58.336C46.975 61.8793 47.4652 65.6972 47.0465 69.4688C46.5785 72.6139 45.1919 75.5486 43.0617 77.9019C40.5175 80.5656 37.3312 82.5253 33.8106 83.5917C30.3886 84.908 26.7135 85.4304 23.0606 85.1197C19.8687 84.6946 16.8757 83.3214 14.4663 81.1766C11.5815 78.5552 9.45591 75.2006 8.31455 71.4676ZM19.4601 67.6873C20.7098 71.3338 22.2817 73.7227 24.1758 74.8539C25.1455 75.3622 26.2074 75.6687 27.2978 75.7547C28.3881 75.8408 29.4844 75.7048 30.5207 75.3547C31.557 75.0047 32.5119 74.448 33.328 73.718C34.1441 72.988 34.8045 72.0998 35.2696 71.1069C36.0506 69.0912 35.7387 66.0529 34.3641 62.0167C33.1957 58.6117 31.6568 56.3583 29.7473 55.2565C28.7869 54.7099 27.7166 54.3863 26.6154 54.3095C25.5142 54.2328 24.41 54.4048 23.3842 54.813C22.3471 55.1254 21.3944 55.6698 20.5976 56.4052C19.8008 57.1407 19.1808 58.048 18.7842 59.059C17.9875 61.1875 18.1864 63.946 19.4601 67.6873Z" fill="#CDD4FF"/>
<path d="M51.3331 62.4608C50.6444 60.668 50.3503 58.7512 50.4701 56.8358C50.5899 54.9205 51.1209 53.0498 52.0283 51.3463C53.0556 49.5297 54.4377 47.9283 56.0955 46.6341C57.7533 45.3398 59.6541 44.3782 61.6887 43.8043C66.9676 42.0237 71.4753 42.175 75.2117 44.2581C78.3726 46.1651 80.7025 49.1485 81.7573 52.6399C82.8122 56.1314 82.5184 59.8868 80.9318 63.1906C79.1217 66.6446 75.8422 69.1696 71.0932 70.7655C67.4559 72.1939 63.4237 72.3058 59.7214 71.0808C57.7367 70.3791 55.9465 69.2357 54.4912 67.7402C53.036 66.2447 51.955 64.4377 51.3331 62.4608ZM61.4597 59.0053C61.9422 60.8676 63.0715 62.5044 64.6538 63.6349C65.2719 63.9982 65.9639 64.2248 66.6817 64.2991C67.3994 64.3734 68.1257 64.2935 68.8101 64.065C69.4945 63.8365 70.1206 63.4649 70.645 62.976C71.1693 62.487 71.5792 61.8925 71.8463 61.2337C72.3748 59.3372 72.2279 57.3234 71.4299 55.5255C70.941 53.7088 69.8273 52.1157 68.2765 51.0148C67.6801 50.6371 67.0022 50.3997 66.2956 50.321C65.589 50.2424 64.8727 50.3246 64.2024 50.5614C63.501 50.7839 62.8598 51.1598 62.3274 51.6607C61.7951 52.1616 61.3855 52.7742 61.1298 53.4522C60.5738 55.2869 60.6906 57.2518 61.4597 59.0053Z" fill="#CDD4FF"/>
<path d="M94.5993 72.8662L82.3522 37.0572L91.6104 33.8646L92.9266 37.6969C93.4282 36.0585 94.2485 34.536 95.3401 33.2172C96.5557 31.9354 98.0688 30.975 99.7446 30.4213C101.283 29.8191 102.949 29.6153 104.588 29.8289C106.226 30.0425 107.785 30.6665 109.12 31.6434C112.069 33.8674 114.24 36.9699 115.323 40.5063C116.8 44.8163 116.889 48.4639 115.621 51.4735C115.019 52.912 114.111 54.2017 112.962 55.2533C111.812 56.3048 110.448 57.093 108.964 57.5632C107.54 58.0673 106.031 58.2897 104.522 58.2182C103.071 58.1209 101.656 57.725 100.365 57.0553L104.599 69.4291L94.5993 72.8662ZM96.7453 46.7055C97.1764 48.3765 98.1893 49.8381 99.601 50.8265C100.161 51.1683 100.792 51.3787 101.444 51.4421C102.097 51.5054 102.756 51.42 103.371 51.1922C103.945 51.0112 104.469 50.6975 104.901 50.2763C105.332 49.8552 105.658 49.3383 105.854 48.7673C106.248 47.0043 106.05 45.1599 105.291 43.5205C104.86 41.841 103.875 40.357 102.494 39.3108C101.988 38.9735 101.411 38.7573 100.808 38.6789C100.205 38.6006 99.5925 38.6621 99.0172 38.8587C98.4087 39.0603 97.8535 39.3972 97.3932 39.8441C96.9329 40.2911 96.5794 40.8365 96.359 41.4398C95.8748 43.1865 96.0114 45.0479 96.7453 46.7055Z" fill="#CDD4FF"/>
<path d="M121.119 45.0952L130.675 40.7417C131.306 41.6543 132.209 42.3386 133.252 42.6938C134.355 42.8924 135.489 42.7961 136.542 42.4144C137.595 42.0328 138.531 41.379 139.256 40.518C139.455 40.2508 139.588 39.9382 139.641 39.6073C139.694 39.2764 139.667 38.9371 139.561 38.6189C139.439 38.2548 139.213 37.9357 138.911 37.7026C138.608 37.4694 138.244 37.3328 137.865 37.3104C136.309 37.3045 134.757 37.4709 133.237 37.8066C130.68 38.3056 128.084 38.5839 125.479 38.6386C123.944 38.5787 122.457 38.0761 121.194 37.1899C119.845 36.2429 118.838 34.8781 118.324 33.3022C117.809 31.7264 117.816 30.0252 118.343 28.4562C118.966 26.7712 120.056 25.3049 121.484 24.2335C123.521 22.7529 125.786 21.6208 128.187 20.8823C130.459 19.9885 132.848 19.4321 135.279 19.2304C136.813 19.1663 138.34 19.4806 139.728 20.1462C141.217 20.9443 142.526 22.0467 143.572 23.3832L134.386 27.5857C133.953 26.9064 133.3 26.4003 132.539 26.1541C131.507 25.9013 130.425 25.9687 129.434 26.3477C128.546 26.5715 127.755 27.0817 127.181 27.8011C127 28.0447 126.881 28.3296 126.834 28.6308C126.787 28.932 126.814 29.2405 126.912 29.5292C127.02 29.8469 127.222 30.124 127.489 30.3241C127.756 30.5242 128.077 30.6379 128.409 30.65C129.949 30.6655 131.485 30.4681 132.972 30.0633C135.555 29.397 138.214 29.0745 140.881 29.1037C142.564 29.1628 144.194 29.7192 145.569 30.7042C146.816 31.6237 147.752 32.9098 148.249 34.3863C148.772 35.9707 148.825 37.674 148.403 39.2864C147.88 41.1979 146.795 42.9023 145.292 44.1745C143.074 46.0093 140.516 47.3774 137.766 48.1989C133.032 49.8394 129.412 50.325 126.908 49.6556C124.464 48.9604 122.385 47.3227 121.119 45.0952Z" fill="#CDD4FF"/>
<path d="M145 4.12054L155.717 8.21259e-05L158.879 8.22397L163.267 25.521L156.635 28.0705L148.172 12.3705L145 4.12054ZM156.001 31.1761L166.001 27.3317L169.403 36.1821L159.404 40.0266L156.001 31.1761Z" fill="#CDD4FF"/>
<path d="M179.94 170.63L164.36 173.46L150.21 96.24L120.15 101.7L71.1504 188.7L76.4104 217.41L139.26 206L143.56 229.48L173.62 224L169.32 200.52L184.9 197.69L179.94 170.63ZM101.09 185L127.09 139.43L134.34 178.97L101.09 185Z" fill="#CDD4FF"/>
<path d="M310.122 88.3944C309.606 83.1223 308.435 77.9345 306.635 72.9504C304.784 68.1762 302.212 63.7117 299.008 59.7112C295.216 55.057 290.506 51.2275 285.17 48.4595C279.359 45.281 271.652 43.069 262.049 41.8236C242.11 39.2315 226.572 42.7577 215.437 52.402C204.301 62.0463 196.964 80.5095 193.427 107.792C192.014 117.988 191.649 128.301 192.337 138.571C193.064 147.984 194.8 155.561 197.546 161.302C201.04 169.045 206.552 175.713 213.508 180.613C220.387 185.428 229.83 188.61 241.837 190.159C263.179 192.932 279.003 188.845 289.311 177.898C299.618 166.95 306.446 148.451 309.795 122.399C311.284 111.119 311.393 99.7008 310.122 88.3944Z" fill="#CDD4FF"/>
<path d="M251.656 177.907C249.085 177.822 246.322 177.589 243.538 177.229C233.766 175.969 226.214 173.512 221.072 169.932C215.944 166.337 211.89 161.434 209.337 155.74L209.284 155.624C207.236 151.387 205.892 145.298 205.305 137.619C204.684 128.396 205.012 119.134 206.286 109.978C210.095 80.6199 217.957 68.3664 223.877 63.2616C230.79 57.3096 240.124 54.6196 252.392 55.0432C254.91 55.1279 257.577 55.3503 260.318 55.6998C268.191 56.7589 274.432 58.4534 278.848 60.8469C282.664 62.798 286.043 65.4965 288.78 68.7794C291.174 71.7445 293.099 75.0552 294.487 78.5971C295.904 82.5464 296.822 86.6554 297.218 90.8294C298.356 100.943 298.252 111.157 296.909 121.246C293.954 144.059 288.236 160.093 279.926 168.905C273.76 175.428 264.511 178.436 251.645 177.949L251.656 177.907Z" fill="#263238"/>
<path d="M265.889 101.887L266 98.6502L264.011 98.0012C263.927 96.9065 263.75 95.8208 263.482 94.7559L265.189 93.509L264.045 90.4687L261.963 90.6395C261.473 89.6624 260.902 88.7282 260.256 87.8469L261.331 86.0449L259.112 83.6792L257.251 84.6357C256.419 83.9195 255.528 83.2739 254.589 82.7057L254.887 80.6389L251.934 79.2981L250.586 80.8866C249.541 80.548 248.471 80.2966 247.385 80.1351L246.881 78.111L243.638 78L242.998 79.9813C241.904 80.0689 240.819 80.246 239.754 80.5108L238.5 78.8028L235.461 79.9386L235.632 82.0224C234.656 82.5129 233.722 83.0842 232.841 83.7305L231.049 82.6459L228.676 84.8578L229.632 86.7281C228.914 87.5606 228.271 88.4551 227.711 89.4012L225.646 89.0852L224.297 92.0401L225.893 93.3895C225.547 94.435 225.296 95.5098 225.142 96.6006L223.111 97.113L223 100.341L224.989 100.99C225.072 102.088 225.249 103.177 225.518 104.244L223.811 105.482L224.955 108.523L227.037 108.352C227.522 109.332 228.093 110.266 228.744 111.145L227.66 112.947L229.879 115.312L231.74 114.364C232.573 115.078 233.463 115.72 234.403 116.286L234.096 118.353L237.049 119.693L238.406 118.113C239.453 118.45 240.527 118.699 241.615 118.856L242.119 120.889L245.354 121L245.994 119.01C247.091 118.927 248.179 118.75 249.246 118.481L250.483 120.189L253.522 119.053L253.359 116.978C254.332 116.481 255.265 115.91 256.15 115.27L257.943 116.346L260.316 114.134L259.368 112.263C260.083 111.434 260.723 110.542 261.28 109.599L263.346 109.906L264.694 106.951L263.107 105.602C263.446 104.558 263.695 103.486 263.849 102.399L265.889 101.887ZM244.039 112.366C241.511 112.273 239.067 111.434 237.016 109.953C234.964 108.472 233.397 106.416 232.512 104.045C231.628 101.673 231.465 99.0928 232.044 96.6289C232.624 94.1651 233.92 91.9282 235.769 90.2008C237.618 88.4733 239.937 87.3327 242.433 86.9228C244.93 86.5129 247.491 86.8522 249.795 87.8978C252.099 88.9433 254.041 90.6484 255.378 92.7976C256.714 94.9469 257.384 97.4441 257.303 99.974C257.249 101.66 256.862 103.319 256.166 104.856C255.469 106.392 254.476 107.776 253.244 108.927C252.012 110.079 250.564 110.975 248.984 111.565C247.405 112.155 245.724 112.427 244.039 112.366Z" fill="#CDD4FF"/>
<path d="M292 124.381L289.456 122.636C289.205 121.728 288.864 120.848 288.438 120.008L289.082 117.466L285.419 113.542L282.874 114.017C282.067 113.537 281.215 113.137 280.33 112.822L278.761 110.178L273.392 110L271.645 112.542C270.736 112.789 269.855 113.13 269.016 113.559L266.472 112.907L262.545 116.576L263.02 119.119C262.533 119.922 262.132 120.774 261.824 121.661L259.187 123.229L259 128.593L261.544 130.339C261.791 131.253 262.132 132.139 262.562 132.983L261.918 135.525L265.581 139.449L268.126 138.983C268.933 139.462 269.785 139.863 270.67 140.178L272.231 142.814L277.608 143L279.346 140.458C280.263 140.209 281.152 139.868 282.001 139.441L284.545 140.085L288.472 136.424L288.005 133.881C288.487 133.076 288.888 132.224 289.201 131.339L291.839 129.771L292 124.381ZM275.267 132.534C274.073 132.493 272.918 132.099 271.949 131.403C270.979 130.706 270.238 129.737 269.819 128.62C269.4 127.502 269.322 126.285 269.595 125.124C269.869 123.962 270.48 122.907 271.353 122.093C272.227 121.278 273.322 120.741 274.501 120.549C275.679 120.356 276.889 120.517 277.976 121.012C279.063 121.506 279.979 122.312 280.608 123.326C281.236 124.341 281.55 125.519 281.509 126.712C281.451 128.31 280.762 129.821 279.592 130.912C278.422 132.003 276.867 132.587 275.267 132.534Z" fill="#F5F5F5"/>
<path d="M294.911 43.8777L295.288 42.5772C295.617 42.3396 295.923 42.0726 296.204 41.7795L297.357 41.6495L298.484 39.5096L297.927 38.4957C298.054 38.1227 298.146 37.7383 298.2 37.3479L299.09 36.3216L298.41 34.0335L297.099 33.658C296.863 33.3277 296.596 33.0209 296.302 32.7416L296.172 31.5889L294.081 30.4561L293.059 31.0243C292.651 30.9304 292.234 30.8829 291.815 30.8828L290.789 29.9922L288.51 30.6718L288.125 31.9833C287.778 32.2161 287.454 32.4818 287.158 32.7767L286.015 32.9056L284.888 35.0454L285.445 36.0594C285.356 36.4681 285.308 36.8848 285.304 37.3031L284.414 38.3393L285.094 40.6175L286.404 40.993C286.634 41.3257 286.898 41.6333 287.192 41.9105L287.321 43.0532L289.461 44.1805L290.475 43.6233C290.887 43.7077 291.306 43.7513 291.727 43.7537L292.753 44.6443L294.911 43.8777ZM289.216 37.9989C289.064 37.491 289.065 36.9493 289.221 36.4424C289.376 35.9354 289.679 35.486 290.09 35.151C290.501 34.816 291.002 34.6104 291.53 34.5604C292.058 34.5103 292.589 34.618 293.055 34.8697C293.522 35.1215 293.904 35.5061 294.152 35.9747C294.4 36.4434 294.503 36.9751 294.449 37.5026C294.395 38.0301 294.185 38.5296 293.847 38.938C293.509 39.3464 293.057 39.6452 292.549 39.7967C291.868 39.9968 291.137 39.9201 290.513 39.5835C289.888 39.2468 289.423 38.6773 289.216 37.9989Z" fill="#CDD4FF"/>
<path d="M266.95 40.3594L266.112 39.7998C267.522 37.5811 269.358 35.6638 271.514 34.1588L272.08 34.9806C270.03 36.4157 268.286 38.2441 266.95 40.3594Z" fill="#CDD4FF"/>
<path d="M274.242 33.8109L273.751 32.9404C277.241 30.9319 281.181 29.8367 285.207 29.7564L285.219 30.7613C281.361 30.8321 277.584 31.8814 274.242 33.8109Z" fill="#CDD4FF"/>
<path d="M273.14 40.8991L272.262 40.4345C274.291 36.9316 277.521 34.2828 281.354 32.9785L281.655 33.9509C278.073 35.1671 275.05 37.634 273.14 40.8991Z" fill="#CDD4FF"/>
<path d="M235.155 159C235.038 158.997 234.928 158.947 234.847 158.863L233.06 157.016C232.149 156.934 231.247 156.768 230.366 156.52L227.57 157.752C227.508 157.785 227.439 157.803 227.369 157.803C227.299 157.803 227.23 157.785 227.168 157.752L222.482 154.648C222.421 154.608 222.372 154.553 222.339 154.489C222.306 154.424 222.291 154.352 222.294 154.28V151.236C221.722 150.52 221.218 149.753 220.789 148.944L218.386 148.021C218.319 147.995 218.259 147.952 218.213 147.897C218.166 147.841 218.135 147.775 218.121 147.704L217.009 142.198C216.994 142.127 216.998 142.054 217.019 141.986C217.039 141.917 217.077 141.854 217.129 141.804L218.976 140.017C219.064 139.107 219.23 138.206 219.472 137.324L218.24 134.527C218.207 134.466 218.189 134.397 218.189 134.326C218.189 134.256 218.207 134.187 218.24 134.126L221.345 129.44C221.383 129.378 221.438 129.328 221.502 129.295C221.567 129.262 221.64 129.247 221.712 129.252L224.757 129.294C225.47 128.72 226.237 128.216 227.048 127.789L227.98 125.387C228.005 125.32 228.046 125.261 228.1 125.214C228.154 125.168 228.219 125.136 228.288 125.121L233.795 124.01C233.866 123.994 233.939 123.997 234.008 124.018C234.077 124.039 234.139 124.077 234.189 124.13L235.976 125.977C236.89 126.06 237.794 126.226 238.678 126.473L241.466 125.241C241.529 125.208 241.599 125.19 241.671 125.19C241.743 125.19 241.813 125.208 241.876 125.241L246.554 128.345C246.613 128.387 246.662 128.442 246.696 128.506C246.73 128.569 246.749 128.64 246.75 128.713L246.699 131.757C247.274 132.472 247.781 133.239 248.213 134.049L250.607 134.981C250.674 135.005 250.733 135.046 250.779 135.1C250.826 135.154 250.858 135.219 250.872 135.288L251.992 140.795C252.006 140.866 252.002 140.938 251.981 141.007C251.96 141.075 251.923 141.137 251.873 141.189L250.017 142.984C249.932 143.892 249.766 144.791 249.521 145.669L250.752 148.465C250.786 148.528 250.804 148.599 250.804 148.671C250.804 148.742 250.786 148.813 250.752 148.876L247.691 153.519C247.651 153.577 247.597 153.624 247.535 153.657C247.472 153.69 247.403 153.707 247.332 153.707L244.279 153.664C243.563 154.231 242.799 154.735 241.996 155.169L241.064 157.572C241.038 157.64 240.996 157.7 240.941 157.746C240.885 157.793 240.819 157.824 240.747 157.837L235.24 159H235.155ZM230.341 155.58C230.38 155.572 230.421 155.572 230.46 155.58C231.384 155.849 232.332 156.023 233.291 156.101C233.393 156.113 233.489 156.158 233.564 156.23L235.275 158.025L240.32 157.008L241.226 154.665C241.268 154.57 241.341 154.492 241.432 154.442C242.286 154.001 243.091 153.471 243.834 152.86C243.913 152.794 244.014 152.761 244.117 152.766L247.084 152.809L249.923 148.534L248.726 145.815C248.692 145.721 248.692 145.618 248.726 145.524C248.99 144.599 249.165 143.652 249.247 142.693C249.256 142.59 249.302 142.493 249.376 142.42L251.171 140.71L250.154 135.665L247.819 134.758C247.719 134.722 247.636 134.648 247.588 134.553C247.145 133.7 246.615 132.895 246.006 132.15C245.946 132.072 245.912 131.976 245.912 131.877V128.901L241.637 126.062L238.926 127.259C238.829 127.294 238.723 127.294 238.627 127.259C237.7 126.992 236.749 126.817 235.788 126.738C235.685 126.725 235.589 126.68 235.514 126.609L233.804 124.814L228.759 125.84L227.861 128.217C227.825 128.315 227.755 128.397 227.664 128.448C226.806 128.888 225.998 129.419 225.252 130.03C225.216 130.063 225.172 130.089 225.125 130.105C225.078 130.121 225.028 130.127 224.979 130.124L222.012 130.081L219.164 134.356L220.361 137.076C220.389 137.133 220.403 137.196 220.403 137.259C220.403 137.323 220.389 137.386 220.361 137.443C220.108 138.346 219.942 139.271 219.865 140.205C219.857 140.309 219.812 140.406 219.737 140.479L217.941 142.189L218.967 147.234L221.293 148.14C221.397 148.184 221.482 148.262 221.533 148.363C221.974 149.21 222.501 150.009 223.106 150.748C223.17 150.825 223.203 150.922 223.2 151.022V153.998L227.476 156.837L230.195 155.64C230.24 155.611 230.289 155.591 230.341 155.58ZM234.539 152.809C232.481 152.807 230.462 152.248 228.696 151.19C226.93 150.132 225.484 148.616 224.511 146.802C223.539 144.988 223.076 142.945 223.171 140.889C223.267 138.833 223.919 136.841 225.056 135.126C226.144 133.48 227.64 132.145 229.398 131.251C231.157 130.357 233.118 129.934 235.088 130.025C237.059 130.115 238.973 130.716 240.642 131.767C242.311 132.819 243.679 134.286 244.611 136.024C245.543 137.763 246.008 139.713 245.961 141.685C245.913 143.658 245.355 145.584 244.34 147.275C243.325 148.967 241.888 150.366 240.17 151.336C238.452 152.306 236.512 152.814 234.539 152.809ZM225.774 135.596C224.623 137.333 224.013 139.372 224.021 141.455C224.028 143.538 224.653 145.573 225.817 147.301C226.981 149.029 228.631 150.373 230.559 151.163C232.487 151.954 234.605 152.155 236.647 151.741C238.689 151.328 240.563 150.318 242.031 148.839C243.499 147.361 244.496 145.481 244.895 143.436C245.295 141.391 245.079 139.274 244.275 137.352C243.472 135.43 242.116 133.789 240.38 132.638C239.228 131.867 237.936 131.332 236.577 131.064C235.217 130.795 233.818 130.799 232.46 131.074C231.103 131.349 229.813 131.89 228.665 132.666C227.517 133.443 226.535 134.438 225.774 135.596Z" fill="#F5F5F5"/>
<path d="M425.83 179.65L410.13 177.53L420.51 99.72L390.23 95.64L316.78 163.26L312.92 192.19L376.21 200.73L373.05 224.4L403.33 228.48L406.49 204.82L422.19 206.94L425.83 179.65ZM346.41 168.93L385.17 133.6L379.85 173.44L346.41 168.93Z" fill="#CDD4FF"/>
<path d="M394.131 227.74H394.001C393.871 227.716 393.756 227.641 393.681 227.532C393.606 227.424 393.577 227.29 393.601 227.16L417.001 99.2199C417.027 99.0915 417.102 98.9782 417.211 98.9037C417.319 98.8292 417.451 98.7992 417.581 98.82C417.71 98.8443 417.825 98.9189 417.9 99.0275C417.975 99.1362 418.004 99.27 417.981 99.3999L394.631 227.33C394.608 227.446 394.545 227.55 394.454 227.624C394.363 227.699 394.249 227.74 394.131 227.74Z" fill="#263238"/>
<path d="M414.83 101.37C414.822 101.587 414.728 101.793 414.569 101.941C414.409 102.089 414.197 102.168 413.98 102.16C413.763 102.152 413.557 102.058 413.409 101.899C413.261 101.739 413.182 101.527 413.19 101.31C413.198 101.092 413.292 100.887 413.451 100.739C413.611 100.591 413.823 100.512 414.04 100.52C414.257 100.528 414.463 100.622 414.611 100.781C414.759 100.941 414.838 101.152 414.83 101.37Z" fill="#263238"/>
<path d="M411.501 118.67C411.495 118.832 411.441 118.989 411.346 119.12C411.251 119.251 411.119 119.352 410.967 119.408C410.815 119.465 410.65 119.475 410.492 119.437C410.334 119.4 410.191 119.316 410.081 119.198C409.97 119.079 409.898 118.93 409.872 118.77C409.846 118.61 409.868 118.446 409.936 118.298C410.003 118.151 410.113 118.027 410.251 117.942C410.389 117.857 410.549 117.814 410.711 117.82C410.818 117.824 410.924 117.849 411.022 117.894C411.12 117.939 411.209 118.002 411.282 118.081C411.355 118.16 411.412 118.253 411.45 118.354C411.488 118.455 411.505 118.562 411.501 118.67Z" fill="#263238"/>
<path d="M408.171 136C408.167 136.108 408.142 136.214 408.097 136.312C408.052 136.41 407.989 136.498 407.91 136.571C407.831 136.645 407.738 136.702 407.637 136.739C407.536 136.777 407.429 136.794 407.321 136.79C407.214 136.787 407.108 136.764 407.01 136.72C406.912 136.676 406.824 136.613 406.75 136.535C406.677 136.457 406.619 136.365 406.582 136.265C406.544 136.164 406.527 136.057 406.531 135.95C406.533 135.841 406.558 135.734 406.602 135.635C406.646 135.536 406.71 135.447 406.789 135.372C406.868 135.298 406.961 135.24 407.062 135.202C407.164 135.164 407.272 135.146 407.381 135.15C407.597 135.16 407.801 135.255 407.949 135.414C408.097 135.573 408.176 135.783 408.171 136Z" fill="#263238"/>
<path d="M401.611 154C401.588 154.201 401.493 154.386 401.342 154.52C401.192 154.655 400.997 154.73 400.796 154.73C400.594 154.73 400.399 154.655 400.249 154.52C400.098 154.386 400.003 154.201 399.981 154C399.968 153.885 399.979 153.769 400.015 153.66C400.05 153.55 400.108 153.449 400.185 153.363C400.262 153.277 400.356 153.208 400.461 153.161C400.566 153.114 400.68 153.09 400.796 153.09C400.911 153.09 401.025 153.114 401.13 153.161C401.235 153.208 401.33 153.277 401.407 153.363C401.483 153.449 401.541 153.55 401.577 153.66C401.612 153.769 401.623 153.885 401.611 154Z" fill="#263238"/>
<path d="M401.501 170.57C401.498 170.678 401.474 170.785 401.43 170.883C401.385 170.982 401.322 171.071 401.242 171.144C401.163 171.218 401.07 171.275 400.968 171.312C400.867 171.349 400.759 171.365 400.651 171.36C400.489 171.354 400.332 171.3 400.201 171.205C400.069 171.11 399.969 170.978 399.913 170.826C399.856 170.674 399.846 170.509 399.883 170.351C399.921 170.193 400.004 170.05 400.123 169.94C400.242 169.83 400.391 169.757 400.551 169.731C400.711 169.705 400.875 169.727 401.022 169.795C401.17 169.862 401.294 169.972 401.379 170.11C401.464 170.248 401.507 170.408 401.501 170.57Z" fill="#263238"/>
<path d="M398.17 187.87C398.166 188.032 398.114 188.19 398.02 188.323C397.926 188.456 397.795 188.557 397.643 188.615C397.491 188.673 397.325 188.685 397.167 188.649C397.008 188.612 396.864 188.53 396.753 188.411C396.642 188.293 396.568 188.144 396.541 187.984C396.515 187.823 396.536 187.658 396.604 187.51C396.671 187.362 396.781 187.238 396.919 187.152C397.057 187.067 397.218 187.024 397.38 187.03C397.596 187.038 397.8 187.13 397.948 187.288C398.096 187.445 398.175 187.654 398.17 187.87Z" fill="#263238"/>
<path d="M394.841 205.17C394.833 205.388 394.739 205.595 394.58 205.745C394.421 205.894 394.209 205.975 393.991 205.97C393.883 205.966 393.777 205.941 393.679 205.896C393.581 205.851 393.493 205.788 393.42 205.709C393.346 205.63 393.289 205.537 393.252 205.436C393.214 205.335 393.197 205.228 393.201 205.12C393.204 205.012 393.228 204.906 393.273 204.808C393.317 204.71 393.38 204.621 393.459 204.547C393.537 204.474 393.629 204.416 393.73 204.378C393.831 204.34 393.938 204.322 394.046 204.325C394.153 204.328 394.259 204.353 394.358 204.397C394.456 204.441 394.544 204.504 394.618 204.583C394.692 204.661 394.75 204.754 394.788 204.854C394.826 204.955 394.844 205.062 394.841 205.17Z" fill="#263238"/>
<path d="M391.501 222.48C391.495 222.642 391.441 222.799 391.346 222.93C391.251 223.061 391.119 223.162 390.967 223.218C390.815 223.275 390.65 223.285 390.492 223.247C390.334 223.21 390.191 223.126 390.081 223.008C389.97 222.889 389.898 222.74 389.872 222.58C389.846 222.42 389.868 222.256 389.936 222.108C390.003 221.961 390.113 221.837 390.251 221.752C390.389 221.667 390.549 221.624 390.711 221.63C390.819 221.633 390.925 221.657 391.024 221.701C391.123 221.745 391.211 221.809 391.285 221.888C391.359 221.968 391.416 222.061 391.453 222.162C391.49 222.264 391.506 222.372 391.501 222.48Z" fill="#263238"/>
<path d="M400.79 154.45C400.678 154.45 400.569 154.411 400.481 154.34C400.394 154.269 400.333 154.17 400.31 154.06C400.296 153.996 400.294 153.929 400.305 153.864C400.316 153.799 400.34 153.737 400.375 153.681C400.411 153.625 400.457 153.577 400.511 153.539C400.565 153.501 400.626 153.474 400.69 153.46L403.17 152.93C403.236 152.915 403.303 152.914 403.368 152.926C403.434 152.937 403.497 152.962 403.553 152.999C403.609 153.035 403.657 153.082 403.694 153.137C403.731 153.192 403.757 153.255 403.77 153.32C403.784 153.384 403.784 153.451 403.771 153.515C403.759 153.58 403.734 153.641 403.698 153.696C403.661 153.751 403.615 153.798 403.56 153.834C403.506 153.871 403.445 153.897 403.38 153.91L400.9 154.44L400.79 154.45Z" fill="#263238"/>
<path d="M409.08 145.24C407.9 148.3 406.899 151.425 406.08 154.6C405.33 158.13 405.29 166.03 405.29 166.03" fill="#263238"/>
<path d="M405.29 166.53C405.157 166.525 405.032 166.469 404.939 166.374C404.846 166.28 404.792 166.153 404.79 166.02C404.79 165.7 404.85 158.02 405.6 154.5C406.414 151.297 407.416 148.145 408.6 145.06C408.62 144.994 408.653 144.933 408.698 144.881C408.743 144.829 408.798 144.786 408.859 144.756C408.921 144.726 408.989 144.709 409.057 144.706C409.126 144.703 409.195 144.714 409.259 144.739C409.323 144.764 409.381 144.802 409.43 144.85C409.479 144.899 409.517 144.957 409.543 145.02C409.568 145.084 409.58 145.153 409.578 145.222C409.576 145.29 409.56 145.358 409.53 145.42C408.352 148.456 407.35 151.558 406.53 154.71C405.8 158.15 405.75 165.95 405.74 166.03C405.741 166.154 405.695 166.274 405.612 166.367C405.528 166.459 405.414 166.518 405.29 166.53Z" fill="#263238"/>
<path d="M222.45 252.84C223.84 230.44 221.29 189.71 263.4 195.11C308.53 200.88 295.62 253.66 295.62 253.66L222.45 252.84Z" fill="#263238"/>
<path d="M251.51 239.38C261.661 239.38 269.89 231.151 269.89 221C269.89 210.849 261.661 202.62 251.51 202.62C241.359 202.62 233.13 210.849 233.13 221C233.13 231.151 241.359 239.38 251.51 239.38Z" fill="white"/>
<path d="M257.976 220.266C257.631 224.682 254.019 228.142 249.911 227.995C245.802 227.849 242.742 224.168 243.017 219.734C243.293 215.3 246.974 211.858 251.083 212.005C255.191 212.151 258.307 215.86 257.976 220.266Z" fill="#263238"/>
<path d="M251.51 240.38C247.677 240.38 243.93 239.243 240.743 237.114C237.556 234.984 235.072 231.958 233.605 228.416C232.138 224.875 231.754 220.978 232.502 217.219C233.25 213.46 235.096 210.007 237.806 207.296C240.517 204.586 243.97 202.74 247.729 201.992C251.488 201.245 255.385 201.628 258.926 203.095C262.468 204.562 265.494 207.046 267.624 210.233C269.753 213.42 270.89 217.167 270.89 221C270.885 226.138 268.841 231.065 265.208 234.698C261.574 238.331 256.648 240.375 251.51 240.38ZM251.51 203.63C248.072 203.63 244.711 204.65 241.853 206.56C238.995 208.47 236.767 211.185 235.452 214.361C234.137 217.538 233.793 221.033 234.465 224.404C235.136 227.776 236.792 230.873 239.224 233.303C241.656 235.733 244.753 237.388 248.125 238.057C251.497 238.727 254.992 238.381 258.168 237.064C261.343 235.747 264.057 233.518 265.966 230.659C267.874 227.799 268.892 224.438 268.89 221C268.885 216.393 267.051 211.977 263.793 208.72C260.534 205.463 256.117 203.633 251.51 203.63Z" fill="#CDD4FF"/>
<path opacity="0.3" d="M290.49 252.28H290.37C290.305 252.266 290.245 252.239 290.191 252.201C290.137 252.163 290.092 252.115 290.057 252.059C290.023 252.003 290 251.94 289.99 251.875C289.98 251.81 289.983 251.744 290 251.68C290 251.55 293.22 237.99 289.91 224.28C289.878 224.147 289.9 224.008 289.971 223.891C290.043 223.775 290.157 223.692 290.29 223.66C290.422 223.628 290.562 223.65 290.678 223.722C290.795 223.793 290.878 223.907 290.91 224.04C294.28 238.04 291.03 251.78 291 251.91C290.97 252.021 290.903 252.118 290.81 252.185C290.717 252.253 290.604 252.286 290.49 252.28Z" fill="white"/>
<path opacity="0.3" d="M287.7 216.76C287.604 216.759 287.51 216.731 287.429 216.68C287.348 216.629 287.283 216.556 287.24 216.47C285.997 213.723 284.404 211.148 282.5 208.81C282.417 208.708 282.378 208.577 282.391 208.446C282.404 208.315 282.469 208.194 282.57 208.11C282.621 208.067 282.68 208.035 282.743 208.016C282.807 207.996 282.874 207.99 282.94 207.996C283.006 208.003 283.07 208.022 283.128 208.054C283.187 208.085 283.238 208.128 283.28 208.18C285.231 210.586 286.868 213.231 288.15 216.05C288.179 216.109 288.195 216.173 288.198 216.238C288.202 216.304 288.192 216.369 288.169 216.431C288.147 216.492 288.113 216.549 288.068 216.597C288.023 216.645 287.97 216.683 287.91 216.71C287.844 216.741 287.773 216.758 287.7 216.76Z" fill="white"/>
<path d="M128.73 357.92H128.36C127.034 357.883 125.777 357.32 124.865 356.357C123.954 355.393 123.463 354.106 123.5 352.78C123.537 351.454 124.1 350.197 125.063 349.285C126.027 348.374 127.314 347.883 128.64 347.92H128.73C131.62 347.92 138.57 344.41 153.11 321.49C153.496 320.881 154.009 320.363 154.614 319.971C155.219 319.579 155.901 319.323 156.615 319.219C157.328 319.116 158.055 319.168 158.746 319.372C159.438 319.575 160.077 319.926 160.62 320.4C172.039 330.216 184.492 338.76 197.76 345.88C198.374 346.159 198.925 346.56 199.38 347.058C199.835 347.556 200.185 348.14 200.408 348.777C200.632 349.414 200.724 350.089 200.679 350.762C200.634 351.435 200.454 352.092 200.149 352.693C199.844 353.295 199.42 353.829 198.903 354.262C198.387 354.696 197.787 355.02 197.142 355.216C196.496 355.412 195.818 355.475 195.147 355.402C194.477 355.329 193.828 355.121 193.24 354.79C180.909 348.237 169.252 340.487 158.44 331.65C146.25 350 137.21 357.92 128.73 357.92Z" fill="#CCCCCC"/>
<path d="M159.671 319.5H159.241C158.455 319.386 157.746 318.965 157.27 318.33C156.794 317.694 156.589 316.896 156.701 316.11C157.411 311.11 156.531 292.48 150.221 277.98C149.941 277.339 149.893 276.621 150.087 275.949C150.28 275.277 150.703 274.694 151.281 274.3C164.981 264.97 194.161 263.85 195.401 263.81C195.794 263.797 196.187 263.861 196.556 264C196.925 264.139 197.263 264.349 197.551 264.618C197.839 264.887 198.071 265.211 198.234 265.57C198.397 265.929 198.487 266.316 198.501 266.71C198.514 267.104 198.449 267.497 198.31 267.866C198.172 268.235 197.962 268.573 197.693 268.861C197.423 269.148 197.1 269.38 196.741 269.543C196.382 269.706 195.994 269.797 195.601 269.81C195.331 269.81 169.821 270.81 156.721 278.01C162.301 292.45 163.571 310.44 162.641 316.95C162.533 317.66 162.174 318.308 161.629 318.776C161.084 319.244 160.389 319.501 159.671 319.5Z" fill="#CCCCCC"/>
<path d="M164.71 315.62C162.71 310.91 153.71 311.44 148.44 315.48C145.62 317.63 141.8 324.12 141.44 326.48C141.32 327.041 141.338 327.622 141.492 328.175C141.647 328.727 141.933 329.233 142.326 329.65C142.72 330.068 143.209 330.383 143.751 330.569C144.294 330.755 144.873 330.807 145.44 330.72C148.89 330.42 153.62 325.41 153.62 325.41C150.47 328.5 154.54 330.68 160.62 326.21C163.94 323.72 166.94 320.89 164.71 315.62Z" fill="#CDD4FF"/>
<path d="M303.47 360.24L185.67 356.33L180.78 242.11L319.89 245.22L303.47 360.24Z" fill="#CDD4FF"/>
<path d="M222.45 358.05C222.324 358.05 222.202 358.003 222.11 357.918C222.017 357.833 221.96 357.716 221.95 357.59L212.51 242.87C212.501 242.738 212.545 242.608 212.631 242.507C212.716 242.406 212.838 242.343 212.97 242.33C213.101 242.324 213.23 242.368 213.33 242.454C213.431 242.539 213.495 242.659 213.51 242.79L223 357.51C223.005 357.576 222.998 357.642 222.978 357.705C222.957 357.767 222.925 357.826 222.882 357.876C222.839 357.926 222.787 357.967 222.728 357.997C222.67 358.027 222.606 358.045 222.54 358.05H222.45Z" fill="#263238"/>
<path d="M303.47 360.24L335.13 355.42L345.1 249.21L319.89 245.22L303.47 360.24Z" fill="#CDD4FF"/>
<path opacity="0.2" d="M303.47 360.24L335.13 355.42L345.1 249.21L319.89 245.22L303.47 360.24Z" fill="black"/>
<path d="M195.73 334.32L192.83 266.45C192.759 264.773 193.032 263.1 193.633 261.533C194.234 259.966 195.15 258.539 196.325 257.34C197.499 256.142 198.907 255.196 200.461 254.563C202.015 253.93 203.683 253.623 205.36 253.66L293.421 255.66C295.154 255.699 296.86 256.106 298.426 256.852C299.991 257.599 301.381 258.669 302.502 259.992C303.624 261.315 304.452 262.861 304.933 264.527C305.414 266.194 305.535 267.943 305.29 269.66L295.53 338C295.108 340.993 293.596 343.725 291.284 345.672C288.971 347.619 286.022 348.644 283 348.55L207.61 346.05C204.516 345.955 201.571 344.692 199.368 342.517C197.165 340.342 195.865 337.413 195.73 334.32Z" fill="#263238"/>
<path d="M205.25 274.49L218.87 274.92L218.76 278.43L210.23 278.16L210.15 280.78L218.06 281.03L217.95 284.39L210.04 284.13L209.94 287.38L218.71 287.66L218.59 291.38L204.72 290.94L205.25 274.49Z" fill="white"/>
<path d="M221.4 291.47L221.92 275.02L230.4 275.29C231.616 275.284 232.826 275.459 233.99 275.81C234.816 276.086 235.521 276.637 235.99 277.37C236.338 277.904 236.572 278.504 236.677 279.132C236.783 279.76 236.758 280.404 236.604 281.022C236.45 281.64 236.171 282.22 235.783 282.726C235.395 283.231 234.908 283.651 234.35 283.96C233.782 284.253 233.171 284.455 232.54 284.56C233.005 284.71 233.447 284.925 233.85 285.2C234.142 285.471 234.404 285.773 234.63 286.1C234.888 286.411 235.116 286.746 235.31 287.1L237.62 291.95L231.88 291.76L229.32 286.65C229.117 286.162 228.818 285.72 228.44 285.35C228.081 285.09 227.653 284.944 227.21 284.93H226.76L226.55 291.6L221.4 291.47ZM226.82 281.85L228.96 281.92C229.415 281.892 229.866 281.829 230.31 281.73C230.645 281.679 230.949 281.504 231.16 281.24C231.377 280.973 231.5 280.643 231.51 280.3C231.529 280.071 231.497 279.841 231.416 279.627C231.334 279.412 231.206 279.219 231.04 279.06C230.482 278.699 229.823 278.528 229.16 278.57L226.92 278.5L226.82 281.85Z" fill="white"/>
<path d="M239.28 292L239.8 275.55L248.27 275.82C249.486 275.813 250.696 275.988 251.86 276.34C252.687 276.613 253.394 277.165 253.86 277.9C254.368 278.701 254.606 279.644 254.54 280.59C254.543 281.388 254.33 282.172 253.923 282.859C253.517 283.545 252.932 284.109 252.23 284.49C251.661 284.781 251.051 284.983 250.42 285.09C250.882 285.239 251.32 285.455 251.72 285.73C252.019 285.993 252.285 286.292 252.51 286.62C252.766 286.933 252.993 287.267 253.19 287.62L255.5 292.46L249.76 292.28L247.2 287.17C246.996 286.683 246.697 286.241 246.32 285.87C245.963 285.6 245.528 285.453 245.08 285.45H244.64L244.42 292.13L239.28 292ZM244.69 282.38L246.84 282.44C247.295 282.423 247.747 282.362 248.19 282.26C248.523 282.211 248.824 282.035 249.03 281.77C249.254 281.508 249.378 281.175 249.38 280.83C249.402 280.602 249.372 280.372 249.292 280.157C249.213 279.943 249.085 279.749 248.92 279.59C248.363 279.22 247.697 279.048 247.03 279.1L244.8 279.03L244.69 282.38Z" fill="white"/>
<path d="M256.321 284.36C256.243 283.212 256.421 282.061 256.842 280.99C257.262 279.92 257.915 278.955 258.752 278.166C259.59 277.377 260.592 276.784 261.686 276.428C262.78 276.073 263.939 275.964 265.081 276.11C266.232 276.072 267.38 276.266 268.455 276.68C269.531 277.094 270.512 277.719 271.341 278.52C272.08 279.372 272.639 280.365 272.983 281.44C273.327 282.514 273.448 283.647 273.341 284.77C273.349 286.404 272.965 288.016 272.221 289.47C271.546 290.66 270.538 291.627 269.321 292.25C267.886 292.936 266.297 293.239 264.711 293.13C263.128 293.143 261.563 292.802 260.131 292.13C258.911 291.468 257.915 290.459 257.271 289.23C256.514 287.724 256.186 286.04 256.321 284.36ZM261.401 284.54C261.251 285.801 261.536 287.074 262.211 288.15C262.526 288.502 262.909 288.787 263.337 288.988C263.764 289.188 264.228 289.301 264.7 289.319C265.172 289.337 265.643 289.259 266.085 289.091C266.527 288.923 266.93 288.667 267.271 288.34C268.012 287.217 268.363 285.882 268.271 284.54C268.405 283.335 268.111 282.121 267.441 281.11C267.137 280.761 266.763 280.481 266.342 280.289C265.92 280.098 265.463 279.999 265.001 280C264.534 279.966 264.066 280.039 263.631 280.212C263.196 280.385 262.806 280.655 262.491 281C261.733 282.021 261.349 283.27 261.401 284.54Z" fill="white"/>
<path d="M275.91 293.21L276.43 276.75L284.9 277.02C286.116 277.018 287.325 277.193 288.49 277.54C289.313 277.821 290.018 278.37 290.49 279.1C290.995 279.902 291.233 280.844 291.17 281.79C291.175 282.59 290.963 283.376 290.556 284.064C290.149 284.753 289.563 285.318 288.86 285.7C288.288 285.983 287.679 286.182 287.05 286.29C287.513 286.442 287.951 286.661 288.35 286.94C288.649 287.203 288.914 287.502 289.14 287.83C289.398 288.141 289.625 288.476 289.82 288.83L292.13 293.68L286.39 293.5L283.83 288.38C283.627 287.895 283.327 287.456 282.95 287.09C282.591 286.822 282.158 286.671 281.71 286.66H281.27L281.05 293.34L275.91 293.21ZM281.32 283.58L283.47 283.65C283.925 283.633 284.377 283.572 284.82 283.47C285.151 283.417 285.451 283.242 285.66 282.98C285.896 282.701 286.021 282.345 286.01 281.98C286.032 281.754 286.002 281.525 285.922 281.312C285.842 281.099 285.715 280.907 285.55 280.75C284.992 280.38 284.327 280.208 283.66 280.26L281.43 280.19L281.32 283.58Z" fill="white"/>
<path d="M284 321.16C283.812 321.164 283.626 321.127 283.453 321.053C283.281 320.979 283.126 320.869 283 320.73L274.44 311.36L265.2 319.8C264.944 320.035 264.605 320.158 264.258 320.143C263.911 320.128 263.585 319.976 263.35 319.72L254.79 310.35L245.55 318.79C245.294 319.025 244.955 319.148 244.608 319.133C244.261 319.118 243.935 318.966 243.7 318.71L235.13 309.34L225.9 317.78C225.765 317.902 225.607 317.995 225.435 318.054C225.263 318.112 225.081 318.135 224.9 318.12C224.552 318.099 224.226 317.945 223.99 317.69L215.43 308.33L206.2 316.76C205.942 316.995 205.602 317.119 205.253 317.104C204.905 317.089 204.576 316.936 204.34 316.68C204.223 316.553 204.133 316.404 204.074 316.242C204.015 316.08 203.989 315.908 203.998 315.736C204.006 315.564 204.049 315.395 204.123 315.24C204.197 315.084 204.301 314.945 204.43 314.83L214.63 305.5C214.888 305.265 215.228 305.141 215.576 305.156C215.925 305.171 216.253 305.324 216.49 305.58L225.05 314.95L234.28 306.51C234.542 306.28 234.881 306.158 235.23 306.17C235.578 306.189 235.905 306.343 236.14 306.6L244.7 315.97L253.94 307.53C254.066 307.413 254.214 307.321 254.376 307.262C254.538 307.202 254.709 307.175 254.882 307.183C255.054 307.19 255.223 307.232 255.379 307.305C255.535 307.379 255.674 307.482 255.79 307.61L264.35 316.98L273.59 308.54C273.846 308.305 274.185 308.182 274.531 308.197C274.878 308.212 275.205 308.364 275.44 308.62L285 319C285.171 319.191 285.282 319.427 285.321 319.681C285.36 319.934 285.324 320.193 285.218 320.426C285.112 320.66 284.94 320.857 284.724 320.994C284.508 321.132 284.256 321.203 284 321.2V321.16Z" fill="white"/>
<path d="M125.75 362.67L119.49 359.68L113.91 332.51L116.94 329.18L125.75 362.67Z" fill="#CDD4FF"/>
<path d="M125.75 362.67L134.06 357.81L126.94 335.43L116.94 329.18L125.75 362.67Z" fill="#CDD4FF"/>
<path opacity="0.2" d="M125.75 362.67L134.06 357.81L126.94 335.43L116.94 329.18L125.75 362.67Z" fill="black"/>
<path d="M262 367.61H261.31C259.984 367.574 258.727 367.013 257.814 366.05C256.902 365.087 256.409 363.801 256.445 362.475C256.481 361.149 257.042 359.891 258.005 358.979C258.968 358.067 260.254 357.574 261.58 357.61C269.28 357.86 285.58 353.13 294.9 344.09C295.463 343.538 296.148 343.127 296.9 342.89C312.69 338.15 318.56 347.72 318.8 348.13L310.2 353.22C310.23 353.284 310.267 353.344 310.31 353.4C310.22 353.27 307.98 350.4 300.86 352.16C289.17 362.82 271.23 367.61 262 367.61Z" fill="#CCCCCC"/>
<path d="M261.39 374.25L243.18 373.11L241.75 339.53L266.22 340.44L261.39 374.25Z" fill="#CDD4FF"/>
<path d="M261.391 374.25L265.651 370.01L268.291 349.08L266.221 340.44L261.391 374.25Z" fill="#CDD4FF"/>
<path opacity="0.2" d="M261.391 374.25L265.651 370.01L268.291 349.08L266.221 340.44L261.391 374.25Z" fill="black"/>
<path d="M366.91 361.54C366.257 361.539 365.621 361.325 365.1 360.93C354.7 353.03 340.65 339 335.26 325.47C335.18 325.274 335.122 325.069 335.09 324.86C332.46 309.22 329.95 276.31 329.84 274.92C329.811 274.526 329.859 274.13 329.983 273.755C330.106 273.38 330.302 273.032 330.56 272.733C331.08 272.128 331.82 271.755 332.615 271.695C333.411 271.635 334.198 271.894 334.803 272.415C335.407 272.935 335.781 273.674 335.84 274.47C335.84 274.8 338.41 308.03 340.97 323.54C346.35 336.7 360.97 350.21 368.75 356.15C369.251 356.53 369.62 357.058 369.805 357.659C369.99 358.26 369.981 358.904 369.78 359.5C369.578 360.096 369.195 360.613 368.684 360.979C368.173 361.345 367.559 361.541 366.93 361.54H366.91Z" fill="#CCCCCC"/>
<path d="M380.78 363.05C378.46 363.05 375.83 362 372.96 359.93C372.316 359.463 371.883 358.76 371.757 357.974C371.632 357.188 371.823 356.384 372.29 355.74C372.757 355.096 373.461 354.663 374.246 354.537C375.032 354.412 375.836 354.603 376.48 355.07C378.96 356.86 380.31 357.07 380.78 357.07C381.576 357.07 382.339 357.386 382.901 357.949C383.464 358.511 383.78 359.274 383.78 360.07C383.78 360.866 383.464 361.629 382.901 362.191C382.339 362.754 381.576 363.07 380.78 363.07V363.05Z" fill="#263238"/>
<path d="M373.801 359.84C377.011 350.31 390.171 352.19 394.711 353.61C398.589 354.736 402.308 356.349 405.781 358.41C408.231 360.01 408.271 362.7 405.001 364.23C401.001 366.11 390.841 364.44 390.841 364.44C396.081 366.73 390.841 370.44 381.631 366.8C378.641 365.62 372.671 363.34 373.801 359.84Z" fill="#CDD4FF"/>
<path d="M341.86 279C340.67 287.1 333.96 293.07 328.5 292.27C323.04 291.47 322.82 284.27 324.01 276.13C325.2 267.99 327.36 262.13 332.82 262.93C338.28 263.73 343.05 270.93 341.86 279Z" fill="#A3A3A3"/>
<path d="M209.881 246.7C210.333 246.7 210.701 246.333 210.701 245.88C210.701 245.427 210.333 245.06 209.881 245.06C209.428 245.06 209.061 245.427 209.061 245.88C209.061 246.333 209.428 246.7 209.881 246.7Z" fill="#263238"/>
<path d="M218.21 251.78C218.21 251.942 218.162 252.101 218.072 252.236C217.982 252.37 217.854 252.476 217.704 252.538C217.554 252.6 217.389 252.616 217.23 252.584C217.071 252.553 216.925 252.475 216.81 252.36C216.696 252.245 216.618 252.099 216.586 251.94C216.554 251.781 216.571 251.616 216.633 251.466C216.695 251.316 216.8 251.188 216.935 251.098C217.07 251.008 217.228 250.96 217.39 250.96C217.608 250.96 217.816 251.046 217.97 251.2C218.124 251.354 218.21 251.563 218.21 251.78Z" fill="#263238"/>
<path d="M219.13 348.68C219.13 348.842 219.082 349.001 218.992 349.136C218.902 349.27 218.774 349.376 218.624 349.438C218.474 349.5 218.309 349.516 218.15 349.484C217.991 349.453 217.845 349.375 217.73 349.26C217.616 349.145 217.538 348.999 217.506 348.84C217.474 348.681 217.491 348.516 217.553 348.366C217.615 348.216 217.72 348.088 217.855 347.998C217.99 347.908 218.148 347.86 218.31 347.86C218.528 347.86 218.736 347.946 218.89 348.1C219.044 348.254 219.13 348.463 219.13 348.68Z" fill="#263238"/>
<path d="M226.64 354.59C226.64 354.752 226.592 354.911 226.502 355.046C226.412 355.18 226.284 355.286 226.134 355.348C225.984 355.41 225.819 355.426 225.66 355.394C225.501 355.363 225.355 355.285 225.24 355.17C225.125 355.055 225.047 354.909 225.016 354.75C224.984 354.591 225 354.426 225.062 354.276C225.124 354.126 225.23 353.998 225.364 353.908C225.499 353.818 225.658 353.77 225.82 353.77C226.037 353.77 226.246 353.856 226.4 354.01C226.554 354.164 226.64 354.373 226.64 354.59Z" fill="#263238"/>
</svg>
